{
    "asset" : {
        "generator" : "Khronos glTF Blender I/O v1.1.46",
        "version" : "2.0"
    },
    "scene" : 0,
    "scenes" : [
        {
            "name" : "Scene",
            "nodes" : [
                0,
                1,
                2,
                3,
                4,
                5,
                6,
                7
            ]
        }
    ],
    "nodes" : [
        {
            "name" : "Area",
            "scale" : [
                0.2754586338996887,
                0.2754586338996887,
                0.2754586338996887
            ],
            "translation" : [
                0,
                1.0862606763839722,
                0
            ]
        },
        {
            "name" : "Camera",
            "rotation" : [
                0.6559233665466309,
                -0.2155829817056656,
                0.2037210315465927,
                0.694108247756958
            ],
            "translation" : [
                -0.8826969861984253,
                0.19285762310028076,
                1.3461530208587646
            ]
        },
        {
            "name" : "Point.001",
            "rotation" : [
                -0.42807528376579285,
                0.11659640073776245,
                -0.22514109313488007,
                0.8674493432044983
            ],
            "translation" : [
                0.4556261897087097,
                0.9762691259384155,
                -1.2909542322158813
            ]
        },
        {
            "mesh" : 0,
            "name" : "Sphere.003",
            "rotation" : [
                0,
                1,
                0,
                -1.6292068494294654e-07
            ],
            "scale" : [
                0.10542254149913788,
                0.10542254149913788,
                0.10542254149913788
            ],
            "translation" : [
                0.16327889263629913,
                0.028113842010498047,
                0.05835607647895813
            ]
        },
        {
            "mesh" : 1,
            "name" : "Sphere.004",
            "rotation" : [
                0,
                1,
                0,
                -1.6292068494294654e-07
            ],
            "scale" : [
                0.10542254149913788,
                0.10542254149913788,
                0.10542254149913788
            ],
            "translation" : [
                0.1633487045764923,
                0.028113842010498047,
                0.05679799243807793
            ]
        },
        {
            "mesh" : 2,
            "name" : "Sphere.005",
            "rotation" : [
                0,
                0,
                0,
                -1
            ],
            "scale" : [
                0.10740351676940918,
                0.10740351676940918,
                0.10740351676940918
            ],
            "translation" : [
                -0.16236381232738495,
                0.028113842010498047,
                0.05777011811733246
            ]
        },
        {
            "name" : "Text",
            "rotation" : [
                0.7071067690849304,
                0,
                0,
                0.7071067690849304
            ],
            "scale" : [
                0.02998063527047634,
                0.025598017498850822,
                0.03499103710055351
            ],
            "translation" : [
                -0.07239409536123276,
                0.009568572044372559,
                0.16275504231452942
            ]
        },
        {
            "name" : "Circle.001",
            "rotation" : [
                0.5384643077850342,
                -0.4583188593387604,
                -0.10660447925329208,
                0.6990246772766113
            ],
            "scale" : [
                0.04849403724074364,
                0.04849403724074364,
                0.04849403724074364
            ],
            "translation" : [
                0.11709555238485336,
                0.33371078968048096,
                0.017106857150793076
            ]
        }
    ],
    "materials" : [
        {
            "alphaMode" : "BLEND",
            "doubleSided" : true,
            "emissiveFactor" : [
                0,
                0,
                0
            ],
            "name" : "Material.013",
            "pbrMetallicRoughness" : {
                "baseColorFactor" : [
                    0.800000011920929,
                    0.800000011920929,
                    0.800000011920929,
                    1
                ],
                "metallicFactor" : 1,
                "roughnessFactor" : 0
            }
        },
        {
            "doubleSided" : true,
            "emissiveFactor" : [
                0,
                0,
                0
            ],
            "name" : "Material.020",
            "pbrMetallicRoughness" : {
                "baseColorFactor" : [
                    0,
                    0,
                    0,
                    1
                ],
                "metallicFactor" : 0,
                "roughnessFactor" : 0.5
            }
        },
        {
            "doubleSided" : true,
            "emissiveFactor" : [
                0,
                0,
                0
            ],
            "name" : "Material.023",
            "pbrMetallicRoughness" : {}
        }
    ],
    "meshes" : [
        {
            "name" : "Sphere.008",
            "primitives" : [
                {
                    "attributes" : {
                        "POSITION" : 0,
                        "NORMAL" : 1,
                        "TEXCOORD_0" : 2
                    },
                    "indices" : 3,
                    "material" : 0
                }
            ]
        },
        {
            "name" : "Sphere.014",
            "primitives" : [
                {
                    "attributes" : {
                        "POSITION" : 4,
                        "NORMAL" : 5,
                        "TEXCOORD_0" : 6,
                        "TEXCOORD_1" : 7,
                        "TEXCOORD_2" : 8
                    },
                    "indices" : 9,
                    "material" : 1
                }
            ]
        },
        {
            "name" : "Sphere.015",
            "primitives" : [
                {
                    "attributes" : {
                        "POSITION" : 10,
                        "NORMAL" : 11,
                        "TEXCOORD_0" : 12,
                        "TEXCOORD_1" : 13,
                        "TEXCOORD_2" : 14
                    },
                    "indices" : 9,
                    "material" : 2
                }
            ]
        }
    ],
    "accessors" : [
        {
            "bufferView" : 0,
            "componentType" : 5126,
            "count" : 6059,
            "max" : [
                2.526771068572998,
                1,
                1.0000003576278687
            ],
            "min" : [
                0.5267710089683533,
                -1.2081069946289062,
                -1
            ],
            "type" : "VEC3"
        },
        {
            "bufferView" : 1,
            "componentType" : 5126,
            "count" : 6059,
            "type" : "VEC3"
        },
        {
            "bufferView" : 2,
            "componentType" : 5126,
            "count" : 6059,
            "type" : "VEC2"
        },
        {
            "bufferView" : 3,
            "componentType" : 5123,
            "count" : 34533,
            "type" : "SCALAR"
        },
        {
            "bufferView" : 4,
            "componentType" : 5126,
            "count" : 6753,
            "max" : [
                2.526771068572998,
                1,
                1.0000003576278687
            ],
            "min" : [
                0.5267710089683533,
                -1.2081069946289062,
                -1
            ],
            "type" : "VEC3"
        },
        {
            "bufferView" : 5,
            "componentType" : 5126,
            "count" : 6753,
            "type" : "VEC3"
        },
        {
            "bufferView" : 6,
            "componentType" : 5126,
            "count" : 6753,
            "type" : "VEC2"
        },
        {
            "bufferView" : 7,
            "componentType" : 5126,
            "count" : 6753,
            "type" : "VEC2"
        },
        {
            "bufferView" : 8,
            "componentType" : 5126,
            "count" : 6753,
            "type" : "VEC2"
        },
        {
            "bufferView" : 9,
            "componentType" : 5123,
            "count" : 39735,
            "type" : "SCALAR"
        },
        {
            "bufferView" : 10,
            "componentType" : 5126,
            "count" : 6753,
            "max" : [
                2.526771068572998,
                1,
                1.0000003576278687
            ],
            "min" : [
                0.5267710089683533,
                -1.2081069946289062,
                -1
            ],
            "type" : "VEC3"
        },
        {
            "bufferView" : 11,
            "componentType" : 5126,
            "count" : 6753,
            "type" : "VEC3"
        },
        {
            "bufferView" : 12,
            "componentType" : 5126,
            "count" : 6753,
            "type" : "VEC2"
        },
        {
            "bufferView" : 13,
            "componentType" : 5126,
            "count" : 6753,
            "type" : "VEC2"
        },
        {
            "bufferView" : 14,
            "componentType" : 5126,
            "count" : 6753,
            "type" : "VEC2"
        }
    ],
    "bufferViews" : [
        {
            "buffer" : 0,
            "byteLength" : 72708,
            "byteOffset" : 0
        },
        {
            "buffer" : 0,
            "byteLength" : 72708,
            "byteOffset" : 72708
        },
        {
            "buffer" : 0,
            "byteLength" : 48472,
            "byteOffset" : 145416
        },
        {
            "buffer" : 0,
            "byteLength" : 69066,
            "byteOffset" : 193888
        },
        {
            "buffer" : 0,
            "byteLength" : 81036,
            "byteOffset" : 262956
        },
        {
            "buffer" : 0,
            "byteLength" : 81036,
            "byteOffset" : 343992
        },
        {
            "buffer" : 0,
            "byteLength" : 54024,
            "byteOffset" : 425028
        },
        {
            "buffer" : 0,
            "byteLength" : 54024,
            "byteOffset" : 479052
        },
        {
            "buffer" : 0,
            "byteLength" : 54024,
            "byteOffset" : 533076
        },
        {
            "buffer" : 0,
            "byteLength" : 79470,
            "byteOffset" : 587100
        },
        {
            "buffer" : 0,
            "byteLength" : 81036,
            "byteOffset" : 666572
        },
        {
            "buffer" : 0,
            "byteLength" : 81036,
            "byteOffset" : 747608
        },
        {
            "buffer" : 0,
            "byteLength" : 54024,
            "byteOffset" : 828644
        },
        {
            "buffer" : 0,
            "byteLength" : 54024,
            "byteOffset" : 882668
        },
        {
            "buffer" : 0,
            "byteLength" : 54024,
            "byteOffset" : 936692
        }
    ],
    "buffers" : [
        {
            "byteLength" : 990716,
            "uri" : "helmet.bin"
        }
    ]
}
