<svg width="82" height="114" viewBox="0 0 82 114" fill="none" xmlns="http://www.w3.org/2000/svg">
<path fill-rule="evenodd" clip-rule="evenodd" d="M10.1661 62.8931L25.6158 77.9471C25.6195 77.9505 25.6231 77.9539 25.6267 77.9574C28.697 80.8626 31.4915 83.8853 34.0081 87.0261C33.4816 81.0961 33.2215 74.0499 33.2215 65.9L33.2215 -2.09908e-06L48.2015 -1.44429e-06L48.2015 65.9C48.2015 73.6225 47.8941 80.6495 47.2751 86.9759C49.7813 83.8529 52.5626 80.8468 55.6167 77.9569C55.6202 77.9536 55.6236 77.9503 55.627 77.9471L71.0768 62.8931L81.2429 73.3071L40.6215 113.348L-1.08338e-05 73.3071L10.1661 62.8931ZM46.852 90.8031C46.3838 91.4375 45.927 92.0765 45.4815 92.72L44.5815 92.72C44.608 92.5312 44.6342 92.3417 44.6601 92.1514C44.7244 91.6789 44.7867 91.2018 44.8469 90.72C44.8751 90.4951 44.9028 90.2692 44.93 90.0422C45.7776 82.9837 46.2015 74.9363 46.2015 65.9L46.2015 2L35.2215 2L35.2215 65.9C35.2215 75.5605 35.589 83.613 36.3241 90.0576C36.3495 90.2803 36.3753 90.5011 36.4016 90.72C36.46 91.2065 36.5206 91.6835 36.5833 92.151C36.609 92.3422 36.6351 92.5319 36.6615 92.72L35.7614 92.72C35.3184 92.08 34.8641 91.4445 34.3986 90.8135C31.46 86.8301 28.0743 83.0256 24.2415 79.4L10.2015 65.72L2.82186 73.2796L2.82224 73.2808L40.6211 110.54L78.4207 73.2808L78.4215 73.28L71.0415 65.72L57.0015 79.4C53.172 83.0225 49.7888 86.8235 46.852 90.8031Z" fill="#313131"/>
</svg>
