<svg width="111" height="14" viewBox="0 0 111 14" fill="none" xmlns="http://www.w3.org/2000/svg">
<path d="M10.3103 0.725769C10.3299 0.62793 10.3299 0.37355 10.232 0.37355C6.86639 0.37355 4.12691 0.37355 0.878673 0.37355C0.604725 0.37355 0.585157 0.432254 0.585157 0.62793V3.15216C0.585157 3.32827 0.585157 3.32827 0.761267 3.32827C1.79835 3.28914 4.65524 3.34784 5.69232 3.3087C5.69232 3.3087 1.68095 9.68777 0.037262 13.2295C-0.0214411 13.3861 -0.0214411 13.6404 0.115533 13.6404C2.42452 13.6404 6.59244 13.6404 10.0168 13.6404C10.1733 13.6404 10.2125 13.6013 10.2125 13.4252V10.8227C10.2125 10.6857 10.1146 10.6075 9.95808 10.6075C8.84272 10.6466 5.67276 10.6662 4.92918 10.6662C4.92918 10.6662 8.39267 5.14807 10.3103 0.725769Z" fill="white"/>
<path d="M23.5856 0.862742C23.7813 0.432254 23.7226 0.37355 23.3117 0.37355H20.4352C20.2004 0.37355 20.1417 0.432254 20.0243 0.725769C19.3981 2.34989 17.5783 6.36126 17.5783 6.36126C17.5783 6.36126 15.7977 2.31075 14.9954 0.686633C14.878 0.451821 14.7997 0.37355 14.4866 0.37355H11.1797C10.9449 0.37355 10.9253 0.37355 11.0623 0.62793C12.9603 4.44363 15.7781 9.51166 15.7781 9.51166V13.3665C15.7781 13.6209 15.7977 13.6404 15.9151 13.6404C17.0696 13.6404 17.9892 13.6404 19.1633 13.6404C19.3785 13.6404 19.3785 13.6209 19.3785 13.3665V9.41382C19.3785 9.41382 21.8636 4.67844 23.5856 0.862742Z" fill="white"/>
<path d="M36.0219 5.46115C36.0219 2.44773 34.2804 0.37355 31.3648 0.37355H25.4945C25.4162 0.37355 25.3184 0.353983 25.3184 0.54966C25.3184 5.22634 25.3184 8.41587 25.3184 13.4643C25.3184 13.66 25.3184 13.6404 25.4945 13.6404C26.649 13.6404 27.4317 13.6404 28.6645 13.6404C28.821 13.6404 28.8406 13.6209 28.8406 13.4643C28.8406 11.9381 28.8406 10.3139 28.8406 10.3139C28.8406 10.3139 31.0517 10.2944 31.6192 10.2357C34.1239 9.94215 36.0219 8.67025 36.0219 5.46115ZM32.4019 5.34374C32.4019 6.4591 31.854 7.32008 30.4843 7.37878L28.8406 7.43749V3.28914H30.4451C31.6388 3.28914 32.4019 4.03271 32.4019 5.34374Z" fill="white"/>
<path d="M49.9631 13.1121C48.8282 11.2728 47.7129 9.29642 47.2041 8.49414C48.3977 7.92668 49.0239 6.65478 49.0239 4.85455C49.0239 2.44773 47.4193 0.37355 44.4059 0.37355H38.3399C38.2812 0.37355 38.1834 0.353983 38.1834 0.54966C38.1834 5.22634 38.1834 8.41587 38.1834 13.4643C38.1834 13.66 38.1834 13.6404 38.3399 13.6404C39.514 13.6404 40.2967 13.6404 41.549 13.6404C41.686 13.6404 41.7056 13.6209 41.7056 13.4643C41.7056 11.9381 41.7056 9.76604 41.7056 9.76604L43.9559 9.72691C43.9559 9.72691 45.3843 11.9772 46.0496 13.2491C46.2257 13.6013 46.304 13.6404 46.4605 13.6404H49.924C50.1393 13.6404 50.198 13.5035 49.9631 13.1121ZM45.306 5.10893C45.306 6.24386 44.719 7.02656 43.6623 7.0657L41.7056 7.1244V3.28914H43.6428C44.7777 3.28914 45.306 4.07184 45.306 5.10893Z" fill="white"/>
<path d="M61.3194 13.3665C61.3194 12.5642 61.3194 11.8206 61.3194 10.8423C61.3194 10.5879 61.3194 10.5879 61.1042 10.5879L55.3709 10.6466V8.37673H60.8498C61.0259 8.37673 61.0455 8.3376 61.0455 8.10279C61.0455 7.32008 61.0455 6.67435 61.0455 5.71553C61.0455 5.48072 61.0259 5.44158 60.8498 5.44158H55.3709V3.23043L60.9672 3.28914C61.1238 3.28914 61.1825 3.1913 61.1825 3.01519C61.1825 2.17378 61.1825 1.60632 61.1825 0.62793C61.1825 0.393118 61.1629 0.37355 60.9672 0.37355H52.1226C51.9269 0.37355 51.9465 0.393118 51.9465 0.569227C51.9465 4.32622 51.9465 9.94215 51.9465 13.3665C51.9465 13.6013 51.9661 13.6404 52.1618 13.6404H61.1042C61.2999 13.6404 61.3194 13.6013 61.3194 13.3665Z" fill="white"/>
<path d="M73.3724 9.62907C73.3724 7.18311 71.9244 5.8525 69.4197 5.50029C69.1653 5.46115 68.9501 5.42201 68.774 5.40245C67.0129 5.10893 66.2889 4.73714 66.2889 3.83703C66.2889 3.11303 66.7194 2.60427 68.0891 2.60427C69.1066 2.60427 70.0067 3.36741 70.2807 4.15011C70.3198 4.24795 70.3785 4.28709 70.5155 4.22838L72.8049 3.3087C72.9223 3.26957 73.0006 3.1913 72.9419 2.97605C72.4331 1.33237 70.8286 0.0996027 68.2261 0.0996027C64.7626 0.0996027 63.0211 1.88026 63.0211 4.42406C63.0211 6.85046 64.6647 8.18106 67.0324 8.41587C67.1694 8.43544 67.3651 8.45501 67.5021 8.47457C69.3023 8.68982 69.8698 9.19858 69.8698 10.0009C69.8698 10.901 69.2436 11.3119 67.8934 11.3119C66.6607 11.3119 65.7605 10.4509 65.5257 9.72691C65.4866 9.57036 65.4866 9.57036 65.3105 9.62907L62.9037 10.6075C62.7667 10.6662 62.7471 10.764 62.8254 10.9792C63.4907 12.8969 65.1539 13.9731 67.8151 13.9731C70.8873 13.9731 73.3724 12.6425 73.3724 9.62907Z" fill="white"/>
<path d="M85.4921 9.62907C85.4921 7.18311 84.0441 5.8525 81.5394 5.50029C81.2851 5.46115 81.0698 5.42201 80.8937 5.40245C79.1326 5.10893 78.4086 4.73714 78.4086 3.83703C78.4086 3.11303 78.8391 2.60427 80.2088 2.60427C81.2263 2.60427 82.1265 3.36741 82.4004 4.15011C82.4395 4.24795 82.4983 4.28709 82.6352 4.22838L84.9246 3.3087C85.0421 3.26957 85.1203 3.1913 85.0616 2.97605C84.5529 1.33237 82.9483 0.0996027 80.3458 0.0996027C76.8823 0.0996027 75.1408 1.88026 75.1408 4.42406C75.1408 6.85046 76.7845 8.18106 79.1522 8.41587C79.2892 8.43544 79.4848 8.45501 79.6218 8.47457C81.422 8.68982 81.9895 9.19858 81.9895 10.0009C81.9895 10.901 81.3633 11.3119 80.0132 11.3119C78.7804 11.3119 77.8803 10.4509 77.6455 9.72691C77.6063 9.57036 77.6063 9.57036 77.4302 9.62907L75.0234 10.6075C74.8864 10.6662 74.8669 10.764 74.9451 10.9792C75.6104 12.8969 77.2737 13.9731 79.9349 13.9731C83.007 13.9731 85.4921 12.6425 85.4921 9.62907Z" fill="white"/>
<path d="M97.2009 13.3665C97.2009 12.5642 97.2009 11.8206 97.2009 10.8423C97.2009 10.5879 97.2009 10.5879 96.9857 10.5879L91.2523 10.6466V8.37673H96.7313C96.9074 8.37673 96.927 8.3376 96.927 8.10279C96.927 7.32008 96.927 6.67435 96.927 5.71553C96.927 5.48072 96.9074 5.44158 96.7313 5.44158H91.2523V3.23043L96.8487 3.28914C97.0052 3.28914 97.064 3.1913 97.064 3.01519C97.064 2.17378 97.064 1.60632 97.064 0.62793C97.064 0.393118 97.0444 0.37355 96.8487 0.37355H88.0041C87.8084 0.37355 87.828 0.393118 87.828 0.569227C87.828 4.32622 87.828 9.94215 87.828 13.3665C87.828 13.6013 87.8476 13.6404 88.0433 13.6404H96.9857C97.1814 13.6404 97.2009 13.6013 97.2009 13.3665Z" fill="white"/>
<path d="M110.624 13.7383C110.682 9.6682 110.702 4.42406 110.624 0.608363C110.624 0.412685 110.624 0.37355 110.428 0.37355C109.195 0.37355 108.628 0.37355 107.454 0.37355C107.297 0.37355 107.297 0.393118 107.297 0.608363V6.47867C107.297 6.47867 102.503 2.0368 99.7048 0.0408993C99.6461 0.00176439 99.5874 -0.017803 99.5483 0.0213318C99.5091 0.0408993 99.4896 0.0800353 99.4896 0.177874C99.4113 5.34374 99.3917 8.45501 99.4896 13.4448C99.4896 13.523 99.5483 13.6404 99.6853 13.6404C100.859 13.6404 101.407 13.6404 102.64 13.6404C102.816 13.6404 102.816 13.6404 102.816 13.4643V7.47662C102.816 7.47662 107.434 11.7228 110.389 13.934C110.467 13.9927 110.526 14.0122 110.565 13.9927C110.624 13.9731 110.624 13.8753 110.624 13.7383Z" fill="white"/>
</svg>
