<svg width="112" height="15" viewBox="0 0 112 15" fill="none" xmlns="http://www.w3.org/2000/svg">
<path d="M10.66 0.557829H1.10003C0.820028 0.557829 0.800029 0.617829 0.800029 0.817829V3.39783C0.800029 3.57783 0.800029 3.57783 0.980029 3.57783C2.04003 3.53783 4.96003 3.59783 6.02003 3.55783C6.02003 3.55783 1.90003 10.0778 0.240028 13.6978C0.160028 13.8578 0.180028 14.1178 0.320028 14.1178H10.44C10.6 14.1178 10.64 14.0778 10.64 13.8978V11.2378C10.64 11.0978 10.54 11.0178 10.38 11.0178C9.24003 11.0578 6.00003 11.0778 5.24003 11.0778C5.24003 11.0778 8.78003 5.43783 10.74 0.917829C10.76 0.817829 10.76 0.557829 10.66 0.557829Z" fill="white"/>
<path d="M23.8286 0.557829H20.8886C20.6486 0.557829 20.5886 0.617829 20.4686 0.917829C19.8286 2.57783 17.9686 6.67783 17.9686 6.67783C17.9686 6.67783 16.1486 2.53783 15.3286 0.877828C15.2086 0.637829 15.1286 0.557829 14.8086 0.557829H11.4286C11.1886 0.557829 11.1686 0.557829 11.3086 0.817829C13.2486 4.71783 16.1286 9.89783 16.1286 9.89783V13.8378C16.1286 14.0978 16.1486 14.1178 16.2686 14.1178H19.5886C19.8086 14.1178 19.8086 14.0978 19.8086 13.8378V9.79783C19.8086 9.79783 22.3486 4.95783 24.1086 1.05783C24.3086 0.617829 24.2486 0.557829 23.8286 0.557829Z" fill="white"/>
<path d="M31.8597 0.557829H25.8597C25.7797 0.557829 25.6797 0.537829 25.6797 0.737829V13.9378C25.6797 14.1378 25.6797 14.1178 25.8597 14.1178H29.0997C29.2597 14.1178 29.2797 14.0978 29.2797 13.9378V10.7178C29.2797 10.7178 31.5397 10.6978 32.1197 10.6378C34.6797 10.3378 36.6197 9.03783 36.6197 5.75783C36.6197 2.67783 34.8397 0.557829 31.8597 0.557829ZM30.9597 7.71783L29.2797 7.77783V3.53783H30.9197C32.1397 3.53783 32.9197 4.29783 32.9197 5.63783C32.9197 6.77783 32.3597 7.65783 30.9597 7.71783Z" fill="white"/>
<path d="M47.8489 8.85783C49.0689 8.27783 49.7089 6.97783 49.7089 5.13783C49.7089 2.67783 48.0689 0.557829 44.9889 0.557829H38.7889C38.7289 0.557829 38.6289 0.537829 38.6289 0.737829V13.9378C38.6289 14.1378 38.6289 14.1178 38.7889 14.1178H42.0689C42.2089 14.1178 42.2289 14.0978 42.2289 13.9378V10.1578L44.5289 10.1178C44.5289 10.1178 45.9889 12.4178 46.6689 13.7178C46.8489 14.0778 46.9289 14.1178 47.0889 14.1178H50.6289C50.8489 14.1178 50.9089 13.9778 50.6689 13.5778C49.5089 11.6978 48.3689 9.67783 47.8489 8.85783ZM44.2289 7.39783L42.2289 7.45783V3.53783H44.2089C45.3689 3.53783 45.9089 4.33783 45.9089 5.39783C45.9089 6.55783 45.3089 7.35783 44.2289 7.39783Z" fill="white"/>
<path d="M62.0761 11.2578C62.0761 10.9978 62.0761 10.9978 61.8561 10.9978L55.9961 11.0578V8.73783H61.5961C61.7761 8.73783 61.7961 8.69783 61.7961 8.45783V6.01783C61.7961 5.77783 61.7761 5.73783 61.5961 5.73783H55.9961V3.47783L61.7161 3.53783C61.8761 3.53783 61.9361 3.43783 61.9361 3.25783V0.817829C61.9361 0.577828 61.9161 0.557829 61.7161 0.557829H52.6761C52.4761 0.557829 52.4961 0.577828 52.4961 0.757828V13.8378C52.4961 14.0778 52.5161 14.1178 52.7161 14.1178H61.8561C62.0561 14.1178 62.0761 14.0778 62.0761 13.8378V11.2578Z" fill="white"/>
<path d="M70.1553 5.79783C69.8953 5.75783 69.6753 5.71783 69.4953 5.69783C67.6953 5.39783 66.9553 5.01783 66.9553 4.09783C66.9553 3.35783 67.3953 2.83783 68.7953 2.83783C69.8353 2.83783 70.7553 3.61783 71.0353 4.41783C71.0753 4.51783 71.1353 4.55783 71.2753 4.49783L73.6153 3.55783C73.7353 3.51783 73.8153 3.43783 73.7553 3.21783C73.2353 1.53783 71.5953 0.277829 68.9353 0.277829C65.3953 0.277829 63.6153 2.09783 63.6153 4.69783C63.6153 7.17783 65.2953 8.53783 67.7153 8.77783C67.8553 8.79783 68.0553 8.81783 68.1953 8.83783C70.0353 9.05783 70.6153 9.57783 70.6153 10.3978C70.6153 11.3178 69.9753 11.7378 68.5953 11.7378C67.3353 11.7378 66.4153 10.8578 66.1753 10.1178C66.1353 9.95783 66.1353 9.93783 65.9553 10.0178L63.4953 11.0178C63.3553 11.0778 63.3353 11.1778 63.4153 11.3978C64.0953 13.3578 65.7953 14.4578 68.5153 14.4578C71.6553 14.4578 74.1953 13.0978 74.1953 10.0178C74.1953 7.51783 72.7153 6.15783 70.1553 5.79783Z" fill="white"/>
<path d="M82.3428 5.79783C82.0828 5.75783 81.8628 5.71783 81.6828 5.69783C79.8828 5.39783 79.1428 5.01783 79.1428 4.09783C79.1428 3.35783 79.5828 2.83783 80.9828 2.83783C82.0228 2.83783 82.9428 3.61783 83.2228 4.41783C83.2628 4.51783 83.3228 4.55783 83.4628 4.49783L85.8028 3.55783C85.9228 3.51783 86.0028 3.43783 85.9428 3.21783C85.4228 1.53783 83.7828 0.277829 81.1228 0.277829C77.5828 0.277829 75.8028 2.09783 75.8028 4.69783C75.8028 7.17783 77.4828 8.53783 79.9028 8.77783C80.0428 8.79783 80.2428 8.81783 80.3828 8.83783C82.2228 9.05783 82.8028 9.57783 82.8028 10.3978C82.8028 11.3178 82.1628 11.7378 80.7828 11.7378C79.5228 11.7378 78.6028 10.8578 78.3628 10.1178C78.3228 9.95783 78.3228 9.93783 78.1428 10.0178L75.6828 11.0178C75.5428 11.0778 75.5228 11.1778 75.6028 11.3978C76.2828 13.3578 77.9828 14.4578 80.7028 14.4578C83.8428 14.4578 86.3828 13.0978 86.3828 10.0178C86.3828 7.51783 84.9028 6.15783 82.3428 5.79783Z" fill="white"/>
<path d="M98.1503 11.2578C98.1503 10.9978 98.1503 10.9978 97.9303 10.9978L92.0703 11.0578V8.73783H97.6703C97.8503 8.73783 97.8703 8.69783 97.8703 8.45783V6.01783C97.8703 5.77783 97.8503 5.73783 97.6703 5.73783H92.0703V3.47783L97.7903 3.53783C97.9503 3.53783 98.0103 3.43783 98.0103 3.25783V0.817829C98.0103 0.577828 97.9903 0.557829 97.7903 0.557829H88.7503C88.5503 0.557829 88.5703 0.577828 88.5703 0.757828V13.8378C88.5703 14.0778 88.5903 14.1178 88.7903 14.1178H97.9303C98.1303 14.1178 98.1503 14.0778 98.1503 13.8378V11.2578Z" fill="white"/>
<path d="M111.67 0.797829C111.67 0.597828 111.67 0.557829 111.47 0.557829H108.43C108.27 0.557829 108.27 0.577828 108.27 0.797829V6.79783C108.27 6.79783 103.37 2.25783 100.51 0.217828C100.45 0.177829 100.39 0.157829 100.35 0.197829C100.31 0.217828 100.29 0.257829 100.29 0.357829C100.21 5.63783 100.19 8.81783 100.29 13.9178C100.29 13.9978 100.35 14.1178 100.49 14.1178H103.51C103.69 14.1178 103.69 14.1178 103.69 13.9378V7.81783C103.69 7.81783 108.41 12.1578 111.43 14.4178C111.51 14.4778 111.57 14.4978 111.61 14.4778C111.67 14.4578 111.67 14.3578 111.67 14.2178C111.73 10.0578 111.75 4.69783 111.67 0.797829Z" fill="white"/>
</svg>
